<?xml version="1.0" standalone="no"?>
<!DOCTYPE svg PUBLIC "-//W3C//DTD SVG 20010904//EN"
 "http://www.w3.org/TR/2001/REC-SVG-20010904/DTD/svg10.dtd">
<svg version="1.0" xmlns="http://www.w3.org/2000/svg"
 width="225.000000pt" height="225.000000pt" viewBox="0 0 225.000000 225.000000"
 preserveAspectRatio="xMidYMid meet">
<metadata>
Created by potrace 1.15, written by Peter Selinger 2001-2017
</metadata>
<g transform="translate(0.000000,225.000000) scale(0.100000,-0.100000)"
fill="#000000" stroke="none">
<path d="M1130 2104 l0 -147 117 -276 c64 -152 116 -283 116 -291 -1 -8 -20
-80 -42 -159 -22 -80 -39 -146 -38 -148 2 -1 50 65 107 147 57 83 105 150 106
150 3 0 254 -477 254 -484 0 -3 -53 33 -117 79 -64 47 -120 85 -123 85 -4 0
-57 -56 -119 -125 -62 -69 -110 -125 -108 -125 4 0 134 45 159 55 14 5 26 -11
63 -85 25 -51 45 -94 43 -95 -2 -2 -40 9 -84 25 l-81 28 -66 -66 c-36 -37 -93
-111 -126 -164 l-61 -97 0 -207 0 -206 78 7 c164 15 331 64 462 137 142 79
303 228 394 366 243 366 243 868 0 1234 -91 138 -252 287 -394 366 -131 73
-298 122 -462 137 l-78 7 0 -148z m211 -156 c153 -183 164 -193 203 -199 22
-4 140 -15 261 -25 287 -24 241 -35 -127 -32 l-270 3 -58 108 c-121 223 -181
337 -176 337 3 0 78 -87 167 -192z m716 -385 c-13 -21 -187 -437 -187 -447 0
-7 47 -115 106 -240 58 -126 104 -230 102 -232 -7 -6 -329 467 -326 478 7 21
293 446 301 447 5 1 6 -2 4 -6z m-43 -1001 c3 -4 -95 -16 -217 -26 -122 -10
-239 -21 -259 -25 -33 -5 -53 -26 -198 -199 -89 -105 -163 -192 -166 -192 -2
0 3 15 12 33 20 39 143 267 191 355 l34 62 299 0 c164 0 301 -4 304 -8z"/>
<path d="M901 1928 l-153 -183 -222 -21 -221 -22 206 -1 c113 0 233 -4 265 -7
l59 -5 111 210 c61 116 111 211 110 211 -2 0 -71 -82 -155 -182z"/>
<path d="M1002 1662 l-112 -267 48 -172 c27 -95 46 -173 43 -173 -3 1 -55 72
-116 160 -60 87 -110 158 -111 157 -1 -1 -39 -72 -84 -157 -45 -85 -100 -188
-122 -229 -22 -40 -34 -70 -26 -65 7 4 60 41 116 82 101 73 104 74 122 56 60
-64 220 -247 217 -250 -2 -2 -43 10 -92 26 -49 16 -89 29 -91 27 -1 -1 -20
-39 -42 -83 l-41 -82 80 26 81 27 65 -69 c36 -38 92 -110 124 -160 l59 -91 0
753 c0 413 -1 752 -2 752 -2 0 -54 -121 -116 -268z"/>
<path d="M235 1485 c10 -22 48 -114 87 -204 l70 -164 -101 -221 c-55 -122 -93
-211 -85 -199 8 12 77 111 153 220 l138 198 -130 195 c-145 219 -155 231 -132
175z"/>
<path d="M520 560 l-205 -5 215 -18 c118 -10 218 -22 221 -25 3 -4 68 -81 144
-172 76 -91 144 -172 152 -180 7 -8 -37 81 -99 197 l-113 213 -55 -2 c-30 -1
-147 -5 -260 -8z"/>
</g>
</svg>
