<?xml version="1.0" standalone="no"?>
<!DOCTYPE svg PUBLIC "-//W3C//DTD SVG 20010904//EN"
 "http://www.w3.org/TR/2001/REC-SVG-20010904/DTD/svg10.dtd">
<svg version="1.0" xmlns="http://www.w3.org/2000/svg"
 width="626.000000pt" height="237.000000pt" viewBox="0 0 626.000000 237.000000"
 preserveAspectRatio="xMidYMid meet">
<metadata>
Created by potrace 1.15, written by Peter Selinger 2001-2017
</metadata>
<g transform="translate(0.000000,237.000000) scale(0.100000,-0.100000)"
fill="#000000" stroke="none">
<path d="M2540 2300 c-8 -4 -44 -13 -80 -20 -68 -12 -110 -43 -110 -82 0 -10
-6 -18 -14 -18 -7 0 -16 -9 -19 -20 -5 -19 -2 -21 36 -16 23 3 71 8 107 11 36
4 70 11 76 16 12 10 94 1 94 -10 0 -9 -51 -31 -72 -31 -10 0 -18 -7 -18 -15 0
-8 -6 -15 -12 -15 -7 0 -26 -11 -42 -25 -16 -13 -37 -27 -47 -30 -11 -4 -19
-11 -19 -16 0 -5 -6 -9 -13 -9 -8 0 -19 -11 -25 -25 -6 -14 -16 -25 -22 -25
-5 0 -10 -9 -10 -19 0 -11 -5 -23 -11 -27 -6 -3 -20 -25 -30 -48 -34 -75 -19
-286 21 -286 5 0 12 -16 16 -36 8 -44 78 -120 126 -136 18 -6 36 -15 39 -20 3
-5 138 -12 300 -15 211 -4 297 -9 304 -17 6 -7 18 -15 29 -19 16 -6 18 -15 14
-59 -3 -31 -12 -56 -22 -63 -9 -7 -16 -17 -16 -22 0 -5 -11 -23 -25 -39 -14
-16 -25 -37 -25 -46 0 -10 -7 -18 -15 -18 -8 0 -15 -6 -15 -14 0 -8 -15 -17
-35 -20 -19 -4 -38 -12 -42 -19 -11 -18 -60 -47 -78 -47 -8 0 -15 -4 -15 -9 0
-5 -17 -12 -37 -16 -20 -4 -42 -12 -48 -19 -15 -18 -90 -38 -119 -30 -21 5
-28 -1 -50 -39 -43 -73 -29 -139 34 -157 19 -5 128 -10 242 -10 l207 0 28 -47
c25 -43 28 -60 32 -153 2 -58 -2 -135 -9 -173 l-12 -67 -161 -2 c-89 0 -171
-2 -182 -3 -11 -1 -59 -3 -106 -4 l-86 -1 -22 -68 c-11 -37 -21 -71 -21 -75 0
-4 163 -6 362 -5 l362 3 8 40 c5 22 13 44 18 49 6 6 10 20 10 32 0 25 -22 33
-95 35 -27 0 -44 3 -37 6 6 2 12 12 12 21 0 8 6 23 14 31 8 9 17 45 21 81 4
36 10 80 13 99 12 55 -14 283 -32 293 -9 5 -16 15 -16 21 0 7 -21 19 -47 26
-27 7 -59 16 -73 20 -14 5 -40 7 -58 6 -37 -2 -41 20 -7 39 11 6 22 14 25 17
3 4 14 18 25 33 11 14 25 26 31 26 6 0 17 12 24 26 8 14 22 30 32 35 10 5 18
16 18 24 0 8 7 15 15 15 8 0 15 9 15 20 0 11 7 23 15 26 8 4 15 12 15 19 0 7
8 23 19 36 10 13 31 61 46 106 22 65 26 91 21 127 -5 30 -12 46 -22 46 -8 0
-14 4 -14 10 0 5 -19 17 -42 28 -37 15 -75 18 -272 21 -127 1 -238 7 -247 12
-10 5 -40 9 -68 9 -28 0 -51 5 -51 10 0 6 -11 10 -24 10 -14 0 -28 5 -31 10
-3 6 -14 10 -24 10 -10 0 -28 9 -41 20 -13 11 -27 20 -32 20 -11 0 -68 55 -68
65 0 4 -7 13 -15 21 -22 22 -20 122 3 154 30 44 76 90 89 90 6 0 16 6 20 14
12 21 70 50 148 75 39 12 78 26 87 32 10 5 28 9 42 9 13 0 29 6 35 14 12 14
58 22 199 32 71 5 73 6 89 40 9 19 20 34 25 34 4 0 8 14 8 31 l0 32 -75 -7
c-83 -8 -360 10 -387 25 -22 11 -88 11 -108 -1z"/>
<path d="M4073 2275 c-13 -12 -23 -34 -23 -49 0 -14 -4 -26 -9 -26 -5 0 -4
-11 2 -25 7 -14 19 -25 27 -25 21 0 49 -55 56 -112 l7 -48 -170 0 -170 0 -11
39 c-7 21 -12 55 -12 75 0 29 -4 36 -20 36 -14 0 -20 7 -20 24 0 31 -10 56
-22 56 -5 0 -20 11 -34 26 -14 14 -31 23 -37 21 -15 -5 -25 -41 -26 -94 -1
-35 5 -48 37 -82 21 -23 45 -63 54 -91 16 -49 16 -51 -9 -100 -14 -27 -29 -50
-34 -50 -5 0 -9 -7 -9 -15 0 -8 -6 -15 -14 -15 -7 0 -16 -9 -19 -20 -3 -11
-13 -23 -24 -27 -10 -3 -29 -17 -42 -30 -13 -13 -32 -23 -42 -23 -10 0 -22 -6
-26 -13 -11 -19 -124 -57 -196 -67 -42 -6 -95 -5 -167 5 -76 9 -109 10 -118 2
-10 -8 -5 -14 24 -29 21 -10 46 -18 56 -18 10 0 27 -4 38 -10 11 -5 29 -14 40
-20 11 -5 43 -10 72 -10 29 0 70 -3 90 -6 l37 -6 7 -80 c8 -93 14 -98 99 -87
33 4 162 8 287 8 l227 1 7 -47 c11 -66 11 -485 0 -557 l-8 -59 33 7 c18 3 35
10 39 15 3 5 26 12 51 16 65 10 76 18 62 47 -7 13 -14 61 -16 108 -3 47 -11
161 -18 253 -12 164 -12 169 8 188 11 11 39 23 62 26 l41 6 0 73 0 74 -374 0
c-333 0 -375 2 -380 16 -8 21 1 34 23 34 10 0 30 9 44 20 14 11 29 20 34 20 5
0 25 14 43 30 18 17 40 30 47 30 7 0 13 7 13 15 0 8 7 15 15 15 8 0 17 11 21
25 3 14 12 25 19 25 14 0 26 27 30 65 1 11 3 23 4 28 0 4 96 7 212 7 l212 0
-6 153 c-5 144 -18 217 -38 217 -5 0 -9 5 -9 11 0 11 -40 49 -50 48 -3 -1 -15
-11 -27 -24z"/>
<path d="M2730 1898 c-8 -13 -18 -33 -22 -46 -5 -19 -2 -25 20 -33 15 -5 35
-14 44 -19 10 -6 31 -10 47 -10 23 0 32 7 43 30 7 17 18 30 24 30 10 0 29 31
22 34 -37 17 -82 30 -118 33 -39 4 -47 1 -60 -19z"/>
<path d="M910 1776 c0 -8 -7 -21 -15 -30 -8 -8 -18 -42 -21 -74 -6 -54 -5 -60
13 -66 17 -5 22 -21 32 -94 7 -48 21 -116 32 -151 10 -35 19 -86 19 -115 0
-28 7 -76 15 -106 8 -30 15 -96 15 -145 0 -76 -3 -93 -18 -105 -33 -26 -61
-40 -84 -40 -12 0 -29 -6 -37 -13 -22 -19 -190 -50 -276 -51 -84 -1 -235 32
-235 51 0 7 -6 13 -14 13 -8 0 -25 14 -37 31 -19 26 -21 40 -16 97 4 64 39
152 59 152 4 0 8 9 8 20 0 10 11 30 25 44 22 22 24 28 13 46 -18 28 -38 25
-38 -5 0 -13 -8 -29 -18 -34 -10 -5 -33 -39 -51 -75 -18 -35 -37 -66 -42 -68
-16 -5 -32 -163 -24 -233 6 -60 7 -62 58 -95 98 -64 134 -71 334 -67 182 4
290 19 308 43 5 8 21 14 35 14 14 -1 117 -2 230 -3 149 -2 219 -7 255 -18 l50
-15 3 -91 3 -90 -45 -47 c-25 -25 -48 -46 -51 -46 -4 0 -20 -14 -37 -30 -16
-16 -34 -30 -39 -30 -20 0 -101 -93 -120 -137 -33 -77 -18 -113 48 -113 33 0
42 4 51 25 7 14 12 43 12 64 0 36 50 131 69 131 4 0 34 25 66 55 33 30 65 55
72 55 7 0 13 6 13 14 0 8 8 21 18 28 37 27 52 81 52 189 0 91 -3 107 -25 145
-18 31 -32 44 -53 46 l-27 3 -5 105 c-6 118 -17 149 -61 191 -38 35 -52 28
-80 -39 l-19 -44 40 -38 c26 -25 40 -47 40 -64 0 -13 4 -27 9 -30 10 -7 2 -48
-11 -57 -5 -3 -80 -7 -167 -8 l-158 -2 5 51 c5 59 -15 318 -29 370 -6 19 -14
76 -19 125 -6 50 -13 102 -16 118 -6 24 -3 27 19 27 19 0 26 6 31 31 16 80 -1
129 -44 129 -31 0 -67 21 -81 46 -14 26 -39 32 -39 10z"/>
<path d="M3943 1743 c-13 -14 -23 -34 -23 -44 0 -9 -5 -19 -12 -21 -20 -7 76
-48 111 -48 24 0 41 9 62 31 38 41 37 54 -10 72 -22 9 -42 21 -46 27 -12 19
-59 9 -82 -17z"/>
<path d="M4474 1558 c3 -29 6 -78 6 -110 l0 -56 91 -4 c73 -2 92 -6 100 -20 6
-10 16 -18 24 -18 21 0 43 -77 49 -173 5 -95 2 -117 -20 -117 -8 0 -14 -7 -14
-15 0 -9 -8 -19 -17 -22 -9 -4 -32 -23 -52 -43 -51 -52 -67 -58 -169 -66 l-92
-7 0 -73 0 -74 115 0 c67 0 115 4 115 10 0 9 49 68 83 99 9 8 17 20 17 26 0 6
8 18 18 26 9 9 25 31 35 50 22 40 37 26 37 -37 0 -23 7 -61 15 -84 8 -23 15
-56 15 -72 0 -38 17 -43 71 -19 24 12 53 21 64 21 41 1 48 14 26 51 -30 48
-61 118 -61 135 0 8 -4 14 -10 14 -5 0 -10 6 -10 14 0 8 -9 30 -19 48 -16 26
-21 61 -27 171 -4 75 -10 137 -14 137 -4 0 -10 34 -12 76 -7 109 -20 119 -142
119 l-94 0 -21 33 c-19 28 -26 32 -67 32 l-47 0 7 -52z"/>
<path d="M5138 1603 c-27 -4 -28 -6 -28 -71 0 -37 3 -84 6 -104 l7 -38 73 0
c66 0 75 -2 85 -22 7 -13 13 -43 12 -68 0 -51 -31 -188 -44 -196 -5 -3 -9 -21
-9 -41 0 -20 -9 -46 -20 -60 -11 -14 -20 -34 -20 -44 0 -18 -21 -87 -43 -139
-20 -50 -20 -50 62 -50 l78 0 16 69 c10 38 17 78 17 89 0 11 7 36 15 55 8 20
15 51 15 70 0 34 20 87 33 87 4 0 7 12 7 26 0 33 36 94 56 94 7 0 21 11 30 25
9 14 22 25 28 25 7 0 22 9 34 20 12 11 30 20 41 20 11 0 25 9 31 20 10 18 21
20 129 20 115 0 120 -1 150 -27 17 -15 31 -37 31 -48 0 -11 6 -29 13 -40 21
-30 46 -151 49 -228 1 -38 6 -71 10 -73 4 -3 8 -16 8 -30 l0 -24 -245 0 c-227
0 -245 -1 -245 -17 0 -10 -7 -36 -15 -58 -29 -81 -52 -75 285 -75 165 0 300 3
301 8 4 39 12 69 22 81 14 16 13 350 0 360 -4 3 -9 29 -10 56 -1 28 -5 73 -8
102 -5 45 -10 52 -32 58 -15 3 -38 15 -51 26 -14 10 -30 19 -36 19 -6 0 -31
18 -55 40 l-44 40 -108 0 -108 0 -72 -70 c-39 -38 -75 -70 -79 -70 -5 0 -18
-15 -29 -34 -22 -36 -49 -52 -62 -39 -4 4 -11 44 -15 88 -5 55 -12 84 -23 92
-9 7 -44 13 -78 13 -45 0 -63 4 -63 13 0 20 -39 57 -58 56 -9 -1 -29 -4 -44
-6z"/>
<path d="M1619 1569 c-13 -17 -32 -39 -41 -47 -10 -9 -18 -21 -18 -26 0 -5 -7
-14 -16 -21 -15 -10 -13 -16 18 -47 42 -41 50 -83 68 -318 18 -246 33 -305 89
-360 26 -25 26 -25 251 -28 324 -4 327 -6 337 -197 4 -81 -8 -240 -20 -252 -2
-1 -111 -3 -243 -4 -133 0 -256 -4 -275 -8 -32 -6 -34 -9 -37 -56 -2 -28 -10
-60 -18 -73 -21 -32 -8 -35 123 -28 59 3 219 5 354 6 l246 0 17 44 c9 24 20
60 23 80 l6 36 -67 0 c-63 0 -66 1 -66 24 0 13 7 26 15 30 8 3 15 17 15 31 0
14 7 40 16 58 23 43 27 166 15 397 -14 247 -27 301 -90 357 l-25 22 -28 -32
c-15 -18 -32 -45 -36 -62 -8 -27 -5 -34 28 -65 36 -33 65 -92 53 -104 -4 -3
-1 -6 5 -6 7 0 12 -15 12 -36 0 -35 -1 -36 -27 -30 -75 18 -194 24 -353 19
-229 -7 -211 -28 -227 245 -6 114 -17 243 -23 287 -13 87 -41 195 -51 195 -4
0 -17 -14 -30 -31z"/>
<path d="M1249 643 c-8 -10 -22 -32 -32 -50 l-17 -31 37 -12 c21 -7 43 -16 48
-20 6 -4 22 -10 37 -14 21 -5 28 -2 33 14 4 11 18 33 31 47 l25 27 -37 18
c-21 10 -48 18 -61 18 -13 0 -23 5 -23 10 0 16 -26 11 -41 -7z"/>
<path d="M2133 598 c-6 -7 -20 -29 -31 -50 -19 -34 -19 -37 -4 -50 15 -12 45
-24 109 -43 17 -5 28 3 57 41 20 26 36 51 36 55 0 5 -12 12 -27 15 -16 4 -37
13 -48 20 -33 20 -81 26 -92 12z"/>
</g>
</svg>
